# xmcd CD database file
#
# Track frame offsets:
#	150
#	17634
#	52043
#	97577
#	119970
#	151982
#	177561
#
# Disc length: 2639 seconds
#
# Revision: 0
# Processed by: cddbd v1.5.2PL0 Copyright (c) Steve Scherf et al.
# Submitted via: CDex 1.70beta2
#
DISCID=570a4d07
DTITLE=Darji and Hank Jones - Darji meets Hank Jones
DYEAR=1982
DGENRE=Jazz
TTITLE0=Darji's Groove
TTITLE1=Sugmad's Lullaby
TTITLE2=Soul Speaks
TTITLE3=Happy Blue
TTITLE4=A Time for Love
TTITLE5=My Romance
TTITLE6=Organ Grinder Swing
EXTD=YEAR: 1982
EXTT0=
EXTT1=
EXTT2=
EXTT3=
EXTT4=
EXTT5=
EXTT6=
PLAYORDER=
